:FULLY-SPECIFIED
:FORCE-ALL-JOINTS-BE-3DOF
:DEGREES
408
root 4.55913 16.16 -11.2741 1.14895 -38.1539 -1.03233
lfemur -28.555 10.1512 -10.4913
ltibia 50.1571 0 0
lfoot -14.5306 12.1358 0
ltoes 3.65569 0 0
rfemur -45.6438 -23.9293 26.3053
rtibia 83.3129 0 0
rfoot 1.61258 0.277408 0
rtoes 32.337 0 0
lowerback 6.21205 4.48444 -0.618418
upperback 1.93098 5.85574 -2.14357
thorax -1.31121 2.91773 -2.28355
lowerneck -6.28299 2.80362 7.50422
upperneck 3.36541 3.14322 -0.604523
head 2.33544 1.65366 -1.37266
lclavicle -2.01197e-14 1.47877e-14 0
lhumerus -45.1317 -17.7408 94.3957
lradius 51.1343 0 0
lwrist 18.4679 0 0
lhand -21.0077 1.51466 0
lfingers 7.12502 0 0
lthumb 5.36687 31.4265 0
rclavicle -2.01197e-14 1.47877e-14 0
rhumerus -44.7533 9.77929 -90.9943
rradius 65.6606 0 0
rwrist 7.95476 0 0
rhand -19.9292 -17.0271 0
rfingers 7.12502 0 0
rthumb 6.40725 -766.89 0
409
root 4.51144 16.1511 -11.139 0.943394 -38.7889 -0.917545
lfemur -28.2096 9.79326 -10.4805
ltibia 49.4465 0 0
lfoot -14.6097 12.5667 0
ltoes 3.37742 0 0
rfemur -46.1194 -24.3991 26.1845
rtibia 84.3728 0 0
rfoot 2.18543 0.270482 0
rtoes 32.743 0 0
lowerback 6.23896 4.57755 -0.705414
upperback 1.91008 5.97364 -2.23284
thorax -1.34378 2.97608 -2.33587
lowerneck -6.23485 2.92156 7.6417
upperneck 3.48124 3.29163 -0.688981
head 2.36962 1.729 -1.41783
lclavicle -2.00724e-14 1.56895e-14 0
lhumerus -45.2356 -17.6088 94.3425
lradius 50.95 0 0
lwrist 18.3951 0 0
lhand -21.038 1.45087 0
lfingers 7.12502 0 0
lthumb 5.33758 31.3635 0
rclavicle -2.00724e-14 1.56895e-14 0
rhumerus -44.9532 9.73701 -90.9393
rradius 65.7082 0 0
rwrist 7.969 0 0
rhand -20.2015 -16.917 0
rfingers 7.12502 0 0
rthumb 6.14472 -766.794 0
410
root 4.46375 16.1422 -11.0039 0.737835 -39.4239 -0.802759
lfemur -27.8642 9.4353 -10.4696
ltibia 48.736 0 0
lfoot -14.6889 12.9977 0
ltoes 3.09916 0 0
rfemur -46.5949 -24.8689 26.0637
rtibia 85.4328 0 0
rfoot 2.75827 0.263555 0
rtoes 33.1491 0 0
lowerback 6.26587 4.67066 -0.792409
upperback 1.88918 6.09155 -2.3221
thorax -1.37635 3.03442 -2.38818
lowerneck -6.18671 3.03949 7.77917
upperneck 3.59706 3.44003 -0.773439
head 2.40381 1.80434 -1.46299
lclavicle -2.00252e-14 1.65913e-14 0
lhumerus -45.3394 -17.4767 94.2892
lradius 50.7656 0 0
lwrist 18.3224 0 0
lhand -21.0684 1.38709 0
lfingers 7.12502 0 0
lthumb 5.3083 31.3006 0
rclavicle -2.00252e-14 1.65913e-14 0
rhumerus -45.153 9.69472 -90.8842
rradius 65.7559 0 0
rwrist 7.98324 0 0
rhand -20.4737 -16.8069 0
rfingers 7.12502 0 0
rthumb 5.88218 -766.698 0
411
root 4.41606 16.1333 -10.8688 0.532276 -40.0589 -0.687973
lfemur -27.5188 9.07735 -10.4588
ltibia 48.0255 0 0
lfoot -14.768 13.4286 0
ltoes 2.82089 0 0
rfemur -47.0705 -25.3387 25.9429
rtibia 86.4927 0 0
rfoot 3.33111 0.256629 0
rtoes 33.5552 0 0
lowerback 6.29278 4.76377 -0.879405
upperback 1.86828 6.20945 -2.41136
thorax -1.40892 3.09276 -2.4405
lowerneck -6.13857 3.15743 7.91665
upperneck 3.71289 3.58844 -0.857897
head 2.43799 1.87968 -1.50816
lclavicle -1.99779e-14 1.74931e-14 0
lhumerus -45.4433 -17.3447 94.236
lradius 50.5812 0 0
lwrist 18.2497 0 0
lhand -21.0987 1.32331 0
lfingers 7.12502 0 0
lthumb 5.27901 31.2376 0
rclavicle -1.99779e-14 1.74931e-14 0
rhumerus -45.3529 9.65244 -90.8291
rradius 65.8035 0 0
rwrist 7.99748 0 0
rhand -20.7459 -16.6968 0
rfingers 7.12502 0 0
rthumb 5.61965 -766.602 0
412
root 4.34688 16.1172 -10.811 0.64361 -38.5234 -1.03947
lfemur -28.2381 9.47066 -10.4364
ltibia 48.3988 0 0
lfoot -14.8598 13.0438 0
ltoes 2.7969 0 0
rfemur -46.0605 -24.9524 25.6084
rtibia 85.2055 0 0
rfoot 3.06882 -0.197045 0
rtoes 31.4845 0 0
lowerback 6.23245 4.67325 -0.698573
upperback 1.83488 6.09991 -2.30428
thorax -1.4111 3.03757 -2.42258
lowerneck -6.16255 3.03595 7.82185
upperneck 3.62852 3.43354 -0.832918
head 2.40833 1.80059 -1.48876
lclavicle -2.05136e-14 1.70858e-14 0
lhumerus -45.3549 -17.5141 94.4099
lradius 50.6476 0 0
lwrist 17.8912 0 0
lhand -21.2786 1.07013 0
lfingers 7.12502 0 0
lthumb 5.10524 30.9858 0
rclavicle -2.05136e-14 1.70858e-14 0
rhumerus -45.4485 9.36499 -90.7104
rradius 65.7917 0 0
rwrist 8.07054 0 0
rhand -20.9077 -16.8738 0
rfingers 7.12502 0 0
rthumb 5.46339 -766.781 0
413
root 4.2777 16.101 -10.7532 0.754944 -36.9879 -1.39097
lfemur -28.9575 9.86396 -10.4139
ltibia 48.7722 0 0
lfoot -14.9516 12.6589 0
ltoes 2.7729 0 0
rfemur -45.0505 -24.5661 25.2739
rtibia 83.9184 0 0
rfoot 2.80653 -0.650719 0
rtoes 29.4139 0 0
lowerback 6.17212 4.58273 -0.51774
upperback 1.80147 5.99037 -2.19721
thorax -1.41329 2.98238 -2.40466
lowerneck -6.18653 2.91448 7.72706
upperneck 3.54415 3.27863 -0.80794
head 2.37867 1.72149 -1.46935
lclavicle -2.10494e-14 1.66786e-14 0
lhumerus -45.2665 -17.6835 94.5838
lradius 50.714 0 0
lwrist 17.5327 0 0
lhand -21.4586 0.816957 0
lfingers 7.12502 0 0
lthumb 4.93146 30.734 0
rclavicle -2.10494e-14 1.66786e-14 0
rhumerus -45.5441 9.07755 -90.5918
rradius 65.7799 0 0
rwrist 8.14361 0 0
rhand -21.0695 -17.0508 0
rfingers 7.12502 0 0
rthumb 5.30714 -766.96 0
414
root 4.20851 16.0849 -10.6954 0.866278 -35.4524 -1.74247
lfemur -29.6768 10.2573 -10.3915
ltibia 49.1455 0 0
lfoot -15.0434 12.2741 0
ltoes 2.74891 0 0
rfemur -44.0405 -24.1799 24.9395
rtibia 82.6312 0 0
rfoot 2.54425 -1.10439 0
rtoes 27.3432 0 0
lowerback 6.11179 4.4922 -0.336908
upperback 1.76807 5.88084 -2.09013
thorax -1.41547 2.92719 -2.38674
lowerneck -6.21051 2.793 7.63226
upperneck 3.45978 3.12373 -0.782961
head 2.34901 1.6424 -1.44995
lclavicle -2.15851e-14 1.62713e-14 0
lhumerus -45.1781 -17.853 94.7577
lradius 50.7805 0 0
lwrist 17.1742 0 0
lhand -21.6385 0.56378 0
lfingers 7.12502 0 0
lthumb 4.75769 30.4823 0
rclavicle -2.15851e-14 1.62713e-14 0
rhumerus -45.6397 8.7901 -90.4731
rradius 65.7681 0 0
rwrist 8.21667 0 0
rhand -21.2313 -17.2278 0
rfingers 7.12502 0 0
rthumb 5.15088 -767.138 0
415
root 4.13933 16.0688 -10.6375 0.977612 -33.9169 -2.09398
lfemur -30.3962 10.6506 -10.369
ltibia 49.5189 0 0
lfoot -15.1352 11.8893 0
ltoes 2.72491 0 0
rfemur -43.0305 -23.7936 24.605
rtibia 81.3441 0 0
rfoot 2.28196 -1.55807 0
rtoes 25.2725 0 0
lowerback 6.05146 4.40168 -0.156076
upperback 1.73466 5.7713 -1.98306
thorax -1.41766 2.872 -2.36882
lowerneck -6.23449 2.67152 7.53746
upperneck 3.37541 2.96883 -0.757982
head 2.31935 1.5633 -1.43054
lclavicle -2.21209e-14 1.5864e-14 0
lhumerus -45.0897 -18.0224 94.9316
lradius 50.8469 0 0
lwrist 16.8158 0 0
lhand -21.8184 0.310604 0
lfingers 7.12502 0 0
lthumb 4.58391 30.2305 0
rclavicle -2.21209e-14 1.5864e-14 0
rhumerus -45.7353 8.50266 -90.3545
rradius 65.7563 0 0
rwrist 8.28974 0 0
rhand -21.3931 -17.4048 0
rfingers 7.12502 0 0
rthumb 4.99463 -767.317 0
416
root 4.07015 16.0526 -10.5797 1.08895 -32.3814 -2.44548
lfemur -31.1155 11.0439 -10.3466
ltibia 49.8922 0 0
lfoot -15.227 11.5044 0
ltoes 2.70092 0 0
rfemur -42.0205 -23.4073 24.2705
rtibia 80.0569 0 0
rfoot 2.01967 -2.01174 0
rtoes 23.2018 0 0
lowerback 5.99113 4.31116 0.0247566
upperback 1.70126 5.66176 -1.87598
thorax -1.41984 2.81681 -2.3509
lowerneck -6.25847 2.55004 7.44267
upperneck 3.29104 2.81393 -0.733003
head 2.28969 1.48421 -1.41114
lclavicle -2.26566e-14 1.54568e-14 0
lhumerus -45.0013 -18.1918 95.1055
lradius 50.9133 0 0
lwrist 16.4573 0 0
lhand -21.9984 0.0574271 0
lfingers 7.12502 0 0
lthumb 4.41014 29.9787 0
rclavicle -2.26566e-14 1.54568e-14 0
rhumerus -45.8309 8.21521 -90.2358
rradius 65.7445 0 0
rwrist 8.3628 0 0
rhand -21.5549 -17.5817 0
rfingers 7.12502 0 0
rthumb 4.83837 -767.496 0
417
root 4.00097 16.0365 -10.5219 1.20028 -30.8459 -2.79698
lfemur -31.8348 11.4372 -10.3242
ltibia 50.2655 0 0
lfoot -15.3188 11.1196 0
ltoes 2.67692 0 0
rfemur -41.0105 -23.021 23.936
rtibia 78.7697 0 0
rfoot 1.75738 -2.46541 0
rtoes 21.1312 0 0
lowerback 5.9308 4.22064 0.205589
upperback 1.66786 5.55222 -1.7689
thorax -1.42202 2.76162 -2.33298
lowerneck -6.28245 2.42857 7.34787
upperneck 3.20667 2.65902 -0.708025
head 2.26004 1.40512 -1.39173
lclavicle -2.31924e-14 1.50495e-14 0
lhumerus -44.9129 -18.3612 95.2794
lradius 50.9797 0 0
lwrist 16.0988 0 0
lhand -22.1783 -0.19575 0
lfingers 7.12502 0 0
lthumb 4.23637 29.7269 0
rclavicle -2.31924e-14 1.50495e-14 0
rhumerus -45.9264 7.92776 -90.1172
rradius 65.7328 0 0
rwrist 8.43586 0 0
rhand -21.7167 -17.7587 0
rfingers 7.12502 0 0
rthumb 4.68212 -767.675 0
418
root 3.93178 16.0204 -10.4641 1.31161 -29.3104 -3.14848
lfemur -32.5542 11.8305 -10.3017
ltibia 50.6389 0 0
lfoot -15.4106 10.7348 0
ltoes 2.65293 0 0
rfemur -40.0005 -22.6347 23.6015
rtibia 77.4826 0 0
rfoot 1.49509 -2.91909 0
rtoes 19.0605 0 0
lowerback 5.87048 4.13011 0.386421
upperback 1.63445 5.44269 -1.66183
thorax -1.42421 2.70643 -2.31507
lowerneck -6.30643 2.30709 7.25307
upperneck 3.1223 2.50412 -0.683046
head 2.23038 1.32602 -1.37233
lclavicle -2.37281e-14 1.46422e-14 0
lhumerus -44.8245 -18.5306 95.4533
lradius 51.0462 0 0
lwrist 15.7403 0 0
lhand -22.3583 -0.448926 0
lfingers 7.12502 0 0
lthumb 4.06259 29.4752 0
rclavicle -2.37281e-14 1.46422e-14 0
rhumerus -46.022 7.64032 -89.9985
rradius 65.721 0 0
rwrist 8.50893 0 0
rhand -21.8785 -17.9357 0
rfingers 7.12502 0 0
rthumb 4.52586 -767.853 0
419
root 3.8626 16.0042 -10.4063 1.42295 -27.7749 -3.49998
lfemur -33.2735 12.2238 -10.2793
ltibia 51.0122 0 0
lfoot -15.5024 10.3499 0
ltoes 2.62893 0 0
rfemur -38.9906 -22.2485 23.267
rtibia 76.1954 0 0
rfoot 1.23281 -3.37276 0
rtoes 16.9898 0 0
lowerback 5.81015 4.03959 0.567254
upperback 1.60105 5.33315 -1.55475
thorax -1.42639 2.65124 -2.29715
lowerneck -6.33041 2.18561 7.15828
upperneck 3.03793 2.34922 -0.658067
head 2.20072 1.24693 -1.35292
lclavicle -2.42639e-14 1.4235e-14 0
lhumerus -44.7361 -18.7 95.6272
lradius 51.1126 0 0
lwrist 15.3818 0 0
lhand -22.5382 -0.702103 0
lfingers 7.12502 0 0
lthumb 3.88882 29.2234 0
rclavicle -2.42639e-14 1.4235e-14 0
rhumerus -46.1176 7.35287 -89.8799
rradius 65.7092 0 0
rwrist 8.58199 0 0
rhand -22.0403 -18.1127 0
rfingers 7.12502 0 0
rthumb 4.36961 -768.032 0
420
root 3.79342 15.9881 -10.3485 1.53428 -26.2394 -3.85148
lfemur -33.9929 12.6171 -10.2568
ltibia 51.3856 0 0
lfoot -15.5942 9.96511 0
ltoes 2.60494 0 0
rfemur -37.9806 -21.8622 22.9326
rtibia 74.9083 0 0
rfoot 0.970518 -3.82644 0
rtoes 14.9191 0 0
lowerback 5.74982 3.94907 0.748086
upperback 1.56764 5.22361 -1.44768
thorax -1.42858 2.59605 -2.27923
lowerneck -6.35439 2.06413 7.06348
upperneck 2.95356 2.19432 -0.633088
head 2.17106 1.16783 -1.33352
lclavicle -2.47996e-14 1.38277e-14 0
lhumerus -44.6477 -18.8695 95.8011
lradius 51.179 0 0
lwrist 15.0233 0 0
lhand -22.7181 -0.955279 0
lfingers 7.12502 0 0
lthumb 3.71504 28.9716 0
rclavicle -2.47996e-14 1.38277e-14 0
rhumerus -46.2132 7.06543 -89.7612
rradius 65.6974 0 0
rwrist 8.65506 0 0
rhand -22.2021 -18.2897 0
rfingers 7.12502 0 0
rthumb 4.21335 -768.211 0
421
root 3.72424 15.972 -10.2907 1.64562 -24.7039 -4.20298
lfemur -34.7122 13.0104 -10.2344
ltibia 51.7589 0 0
lfoot -15.686 9.58028 0
ltoes 2.58094 0 0
rfemur -36.9706 -21.4759 22.5981
rtibia 73.6211 0 0
rfoot 0.70823 -4.28011 0
rtoes 12.8485 0 0
lowerback 5.68949 3.85855 0.928918
upperback 1.53424 5.11407 -1.3406
thorax -1.43076 2.54086 -2.26131
lowerneck -6.37837 1.94266 6.96868
upperneck 2.86919 2.03941 -0.60811
head 2.1414 1.08874 -1.31411
lclavicle -2.53354e-14 1.34204e-14 0
lhumerus -44.5593 -19.0389 95.975
lradius 51.2454 0 0
lwrist 14.6648 0 0
lhand -22.8981 -1.20846 0
lfingers 7.12502 0 0
lthumb 3.54127 28.7198 0
rclavicle -2.53354e-14 1.34204e-14 0
rhumerus -46.3088 6.77798 -89.6426
rradius 65.6856 0 0
rwrist 8.72812 0 0
rhand -22.3639 -18.4667 0
rfingers 7.12502 0 0
rthumb 4.0571 -768.39 0
